<mxfile host="app.diagrams.net" agent="Mozilla/5.0 (Windows NT 10.0; Win64; x64) AppleWebKit/537.36 (KHTML, like Gecko) Chrome/134.0.0.0 Safari/537.36 Edg/134.0.0.0" version="26.1.1">
  <diagram name="第 1 页" id="JLP-QVXduMYiQAhYhXaz">
    <mxGraphModel dx="1410" dy="774" grid="1" gridSize="10" guides="1" tooltips="1" connect="1" arrows="1" fold="1" page="1" pageScale="1" pageWidth="827" pageHeight="1169" math="0" shadow="0">
      <root>
        <mxCell id="0" />
        <mxCell id="1" parent="0" />
        <mxCell id="sU2knNB_B-pGH0bVqP-2-1" value="start" style="ellipse;whiteSpace=wrap;html=1;aspect=fixed;" vertex="1" parent="1">
          <mxGeometry x="60" y="300" width="50" height="50" as="geometry" />
        </mxCell>
        <mxCell id="sU2knNB_B-pGH0bVqP-2-2" value="IDLE" style="ellipse;whiteSpace=wrap;html=1;aspect=fixed;" vertex="1" parent="1">
          <mxGeometry x="190" y="250" width="50" height="50" as="geometry" />
        </mxCell>
        <mxCell id="sU2knNB_B-pGH0bVqP-2-5" value="" style="curved=1;endArrow=classic;html=1;rounded=0;exitX=0.5;exitY=0;exitDx=0;exitDy=0;entryX=0.04;entryY=0.34;entryDx=0;entryDy=0;entryPerimeter=0;" edge="1" parent="1" source="sU2knNB_B-pGH0bVqP-2-1" target="sU2knNB_B-pGH0bVqP-2-2">
          <mxGeometry width="50" height="50" relative="1" as="geometry">
            <mxPoint x="50" y="270" as="sourcePoint" />
            <mxPoint x="100" y="220" as="targetPoint" />
            <Array as="points">
              <mxPoint x="100" y="270" />
              <mxPoint x="120" y="260" />
              <mxPoint x="140" y="260" />
            </Array>
          </mxGeometry>
        </mxCell>
        <mxCell id="sU2knNB_B-pGH0bVqP-2-7" value="Fingerprint matching" style="ellipse;whiteSpace=wrap;html=1;aspect=fixed;" vertex="1" parent="1">
          <mxGeometry x="260" y="350" width="70" height="70" as="geometry" />
        </mxCell>
        <mxCell id="sU2knNB_B-pGH0bVqP-2-9" value="" style="curved=1;endArrow=classic;html=1;rounded=0;exitX=0.5;exitY=1;exitDx=0;exitDy=0;entryX=0;entryY=0.5;entryDx=0;entryDy=0;" edge="1" parent="1" source="sU2knNB_B-pGH0bVqP-2-2" target="sU2knNB_B-pGH0bVqP-2-7">
          <mxGeometry width="50" height="50" relative="1" as="geometry">
            <mxPoint x="100" y="460" as="sourcePoint" />
            <mxPoint x="140" y="510" as="targetPoint" />
            <Array as="points">
              <mxPoint x="230" y="350" />
            </Array>
          </mxGeometry>
        </mxCell>
        <mxCell id="sU2knNB_B-pGH0bVqP-2-10" value="Button pressed" style="edgeLabel;html=1;align=center;verticalAlign=middle;resizable=0;points=[];" vertex="1" connectable="0" parent="sU2knNB_B-pGH0bVqP-2-9">
          <mxGeometry x="-0.1981" y="4" relative="1" as="geometry">
            <mxPoint as="offset" />
          </mxGeometry>
        </mxCell>
        <mxCell id="sU2knNB_B-pGH0bVqP-2-11" value="Match(send success message to haptic feedback task" style="ellipse;whiteSpace=wrap;html=1;aspect=fixed;" vertex="1" parent="1">
          <mxGeometry x="390" y="330" width="100" height="100" as="geometry" />
        </mxCell>
        <mxCell id="sU2knNB_B-pGH0bVqP-2-12" value="Not match" style="ellipse;whiteSpace=wrap;html=1;aspect=fixed;" vertex="1" parent="1">
          <mxGeometry x="440" y="180" width="70" height="70" as="geometry" />
        </mxCell>
        <mxCell id="sU2knNB_B-pGH0bVqP-2-15" value="" style="curved=1;endArrow=classic;html=1;rounded=0;exitX=1;exitY=1;exitDx=0;exitDy=0;entryX=0;entryY=1;entryDx=0;entryDy=0;" edge="1" parent="1" source="sU2knNB_B-pGH0bVqP-2-7" target="sU2knNB_B-pGH0bVqP-2-11">
          <mxGeometry width="50" height="50" relative="1" as="geometry">
            <mxPoint x="330" y="400" as="sourcePoint" />
            <mxPoint x="375" y="485" as="targetPoint" />
            <Array as="points">
              <mxPoint x="360" y="420" />
              <mxPoint x="380" y="420" />
              <mxPoint x="390" y="410" />
            </Array>
          </mxGeometry>
        </mxCell>
        <mxCell id="sU2knNB_B-pGH0bVqP-2-21" value="Fingerprint match" style="edgeLabel;html=1;align=center;verticalAlign=middle;resizable=0;points=[];" vertex="1" connectable="0" parent="sU2knNB_B-pGH0bVqP-2-15">
          <mxGeometry x="0.1291" y="1" relative="1" as="geometry">
            <mxPoint as="offset" />
          </mxGeometry>
        </mxCell>
        <mxCell id="sU2knNB_B-pGH0bVqP-2-19" value="" style="curved=1;endArrow=classic;html=1;rounded=0;entryX=0.5;entryY=1;entryDx=0;entryDy=0;" edge="1" parent="1" source="sU2knNB_B-pGH0bVqP-2-7" target="sU2knNB_B-pGH0bVqP-2-12">
          <mxGeometry width="50" height="50" relative="1" as="geometry">
            <mxPoint x="280" y="320" as="sourcePoint" />
            <mxPoint x="330" y="270" as="targetPoint" />
            <Array as="points">
              <mxPoint x="330" y="320" />
              <mxPoint x="410" y="300" />
            </Array>
          </mxGeometry>
        </mxCell>
        <mxCell id="sU2knNB_B-pGH0bVqP-2-20" value="Fingerprint not matching(uart packet to MCU not right)" style="edgeLabel;html=1;align=center;verticalAlign=middle;resizable=0;points=[];" vertex="1" connectable="0" parent="sU2knNB_B-pGH0bVqP-2-19">
          <mxGeometry x="-0.1125" relative="1" as="geometry">
            <mxPoint as="offset" />
          </mxGeometry>
        </mxCell>
        <mxCell id="sU2knNB_B-pGH0bVqP-2-22" value="" style="curved=1;endArrow=classic;html=1;rounded=0;exitX=0;exitY=0.5;exitDx=0;exitDy=0;entryX=0.96;entryY=0.36;entryDx=0;entryDy=0;entryPerimeter=0;" edge="1" parent="1" source="sU2knNB_B-pGH0bVqP-2-12" target="sU2knNB_B-pGH0bVqP-2-2">
          <mxGeometry width="50" height="50" relative="1" as="geometry">
            <mxPoint x="350" y="220" as="sourcePoint" />
            <mxPoint x="400" y="170" as="targetPoint" />
            <Array as="points">
              <mxPoint x="340" y="275" />
            </Array>
          </mxGeometry>
        </mxCell>
        <mxCell id="sU2knNB_B-pGH0bVqP-2-23" value="Send Failed to Haptic feedback task" style="edgeLabel;html=1;align=center;verticalAlign=middle;resizable=0;points=[];" vertex="1" connectable="0" parent="sU2knNB_B-pGH0bVqP-2-22">
          <mxGeometry x="-0.3785" y="-11" relative="1" as="geometry">
            <mxPoint x="-16" y="19" as="offset" />
          </mxGeometry>
        </mxCell>
        <mxCell id="sU2knNB_B-pGH0bVqP-2-24" value="" style="curved=1;endArrow=classic;html=1;rounded=0;exitX=0.5;exitY=1;exitDx=0;exitDy=0;entryX=1;entryY=0.5;entryDx=0;entryDy=0;" edge="1" parent="1" source="sU2knNB_B-pGH0bVqP-2-11" target="sU2knNB_B-pGH0bVqP-2-11">
          <mxGeometry width="50" height="50" relative="1" as="geometry">
            <mxPoint x="446" y="400.98" as="sourcePoint" />
            <mxPoint x="474" y="365" as="targetPoint" />
            <Array as="points">
              <mxPoint x="464" y="450" />
              <mxPoint x="490" y="440" />
              <mxPoint x="510" y="410" />
            </Array>
          </mxGeometry>
        </mxCell>
        <mxCell id="sU2knNB_B-pGH0bVqP-2-25" value="Wait time not passed" style="edgeLabel;html=1;align=center;verticalAlign=middle;resizable=0;points=[];" vertex="1" connectable="0" parent="sU2knNB_B-pGH0bVqP-2-24">
          <mxGeometry x="-0.3926" y="4" relative="1" as="geometry">
            <mxPoint as="offset" />
          </mxGeometry>
        </mxCell>
        <mxCell id="sU2knNB_B-pGH0bVqP-2-26" value="" style="curved=1;endArrow=classic;html=1;rounded=0;exitX=1;exitY=0;exitDx=0;exitDy=0;entryX=0.5;entryY=0;entryDx=0;entryDy=0;" edge="1" parent="1" source="sU2knNB_B-pGH0bVqP-2-11" target="sU2knNB_B-pGH0bVqP-2-2">
          <mxGeometry width="50" height="50" relative="1" as="geometry">
            <mxPoint x="510" y="360" as="sourcePoint" />
            <mxPoint x="560" y="310" as="targetPoint" />
            <Array as="points">
              <mxPoint x="560" y="360" />
              <mxPoint x="550" y="70" />
            </Array>
          </mxGeometry>
        </mxCell>
        <mxCell id="sU2knNB_B-pGH0bVqP-2-27" value="wait time passed" style="edgeLabel;html=1;align=center;verticalAlign=middle;resizable=0;points=[];" vertex="1" connectable="0" parent="sU2knNB_B-pGH0bVqP-2-26">
          <mxGeometry x="-0.445" y="2" relative="1" as="geometry">
            <mxPoint as="offset" />
          </mxGeometry>
        </mxCell>
      </root>
    </mxGraphModel>
  </diagram>
</mxfile>
